P3
20 9
255
20 20 20
99 99 99
88 88 88
28 28 28
94 94 94
101 101 101
36 36 36
83 83 83
112 112 112
61 61 61
78 78 78
122 122 122
75 75 75
71 71 71
126 126 126
100 100 100
80 80 80
132 132 132
117 117 117
79 79 79
37 37 37
88 88 88
91 91 91
44 44 44
90 90 90
101 101 101
56 56 56
87 87 87
108 108 108
74 74 74
79 79 79
112 112 112
86 86 86
76 76 76
118 118 118
102 102 102
86 86 86
125 125 125
119 119 119
86 86 86
56 56 56
74 74 74
96 96 96
66 66 66
81 81 81
100 100 100
77 77 77
82 82 82
105 105 105
91 91 91
87 87 87
109 109 109
101 101 101
86 86 86
110 110 110
107 107 107
91 91 91
109 109 109
114 114 114
91 91 91
50 50 50
67 67 67
97 97 97
88 88 88
76 76 76
100 100 100
96 96 96
79 79 79
99 99 99
103 103 103
91 91 91
100 100 100
106 106 106
89 89 89
98 98 98
109 109 109
98 98 98
92 92 92
112 112 112
90 90 90
60 60 60
67 67 67
91 91 91
105 105 105
73 73 73
100 100 100
106 106 106
75 75 75
93 93 93
110 110 110
91 91 91
92 92 92
110 110 110
96 96 96
91 91 91
111 111 111
102 102 102
75 75 75
105 105 105
94 94 94
87 87 87
73 73 73
79 79 79
109 109 109
84 84 84
100 100 100
105 105 105
82 82 82
94 94 94
106 106 106
107 107 107
97 97 97
109 109 109
107 107 107
93 93 93
106 106 106
100 100 100
82 82 82
101 101 101
90 90 90
110 110 110
93 93 93
101 101 101
108 108 108
91 91 91
99 99 99
106 106 106
94 94 94
100 100 100
107 107 107
114 114 114
98 98 98
103 103 103
109 109 109
93 93 93
96 96 96
92 92 92
87 87 87
92 92 92
88 88 88
104 104 104
98 98 98
99 99 99
104 104 104
95 95 95
95 95 95
103 103 103
105 105 105
98 98 98
101 101 101
106 106 106
91 91 91
92 92 92
98 98 98
88 88 88
83 83 83
83 83 83
84 84 84
85 85 85
81 81 81
101 101 101
106 106 106
102 102 102
96 96 96
93 93 93
88 88 88
87 87 87
94 94 94
87 87 87
83 83 83
87 87 87
88 88 88
82 82 82
84 84 84
87 87 87
74 74 74
76 76 76
83 83 83
74 74 74
73 73 73
