P3
20 9
255
20 75 103
23 85 112
23 88 115
41 99 123
44 102 122
67 114 129
77 121 131
92 131 136
114 142 139
99 132 135
83 123 130
111 132 131
122 135 130
124 137 119
123 135 117
125 136 114
130 138 112
123 136 116
111 128 115
69 101 105
16 58 78
29 73 94
25 74 95
48 93 112
55 96 113
57 97 112
56 78 83
70 103 113
74 106 115
75 105 112
83 108 113
85 107 112
84 106 114
84 105 111
112 118 105
89 103 97
77 97 100
92 105 102
88 102 95
89 103 89
17 46 61
28 57 72
29 62 80
41 75 93
48 83 101
45 82 101
73 94 101
83 105 113
86 107 113
98 114 117
126 130 120
115 118 113
82 97 102
81 96 98
82 93 92
86 97 93
85 96 94
74 85 81
72 83 77
82 93 79
25 49 64
29 56 71
45 72 90
47 76 95
72 95 112
78 99 113
83 98 109
100 112 124
122 124 131
141 139 133
140 138 134
140 136 129
117 117 115
121 118 108
115 110 96
80 86 84
85 90 83
94 95 81
99 97 79
86 91 75
51 76 96
57 83 106
64 87 110
73 93 114
88 103 122
104 113 129
116 117 125
123 122 130
145 144 142
147 146 141
144 143 140
143 142 138
124 123 120
135 125 115
144 128 110
109 106 97
124 114 97
126 113 90
125 112 87
106 101 81
124 116 102
147 133 110
156 139 117
162 144 119
175 154 126
191 166 135
185 164 135
212 185 156
219 193 161
223 197 165
229 201 165
223 191 151
225 194 140
189 160 113
230 195 127
223 187 114
224 189 113
221 187 111
209 175 99
193 163 89
126 111 88
138 121 94
147 126 100
156 133 106
159 135 109
170 143 117
156 135 118
197 165 138
208 174 144
214 182 145
224 187 145
204 168 125
172 143 102
174 141 94
225 184 101
225 184 99
225 186 99
221 184 96
192 154 78
178 144 72
95 85 71
118 103 83
114 100 85
125 108 92
115 102 95
127 110 101
157 128 109
177 145 119
191 155 122
191 154 116
207 164 114
210 168 101
215 176 95
222 185 97
235 203 110
231 199 102
230 197 100
232 203 110
204 168 73
184 150 63
61 58 56
71 66 62
70 67 64
93 84 77
84 82 80
110 96 90
112 93 87
115 97 90
138 111 92
165 129 91
181 144 85
167 134 76
207 180 93
222 200 112
223 206 120
220 203 118
223 205 116
216 194 97
196 170 70
179 148 55
